<svg width="128" height="128" viewBox="0 0 128 128" fill="none" xmlns="http://www.w3.org/2000/svg">
<rect width="128" height="128" fill="black" style="fill:black;fill:black;fill-opacity:1;"/>
<path d="M21.7259 77V58.064H28.531V77H21.7259ZM25.1285 56.0915C24.208 56.0915 23.419 55.7874 22.7615 55.1793C22.104 54.5711 21.7752 53.8396 21.7752 52.9849C21.7752 52.1301 22.104 51.3986 22.7615 50.7904C23.419 50.1823 24.208 49.8782 25.1285 49.8782C26.0572 49.8782 26.8462 50.1823 27.4955 50.7904C28.153 51.3986 28.4817 52.1301 28.4817 52.9849C28.4817 53.8396 28.153 54.5711 27.4955 55.1793C26.8462 55.7874 26.0572 56.0915 25.1285 56.0915ZM43.6814 50.5685L35.5449 80.7971H29.7753L37.9119 50.5685H43.6814ZM51.3764 77H43.9795L52.3133 51.752H61.6827L70.0165 77H62.6196L57.0966 58.7051H56.8994L51.3764 77ZM49.9956 67.0389H63.9017V72.1674H49.9956V67.0389ZM79.4836 77.3452C77.4289 77.3452 75.6701 76.9384 74.2072 76.1247C72.7442 75.3028 71.6224 74.1604 70.8416 72.6975C70.0608 71.2263 69.6704 69.5209 69.6704 67.5813C69.6704 65.6417 70.0608 63.9404 70.8416 62.4775C71.6224 61.0063 72.7442 59.8639 74.2072 59.0503C75.6701 58.2284 77.4289 57.8175 79.4836 57.8175C81.341 57.8175 82.9478 58.1544 84.3039 58.8284C85.6682 59.4941 86.7243 60.4392 87.4722 61.6638C88.2201 62.8802 88.5982 64.3103 88.6064 65.954H82.2944C82.204 64.9596 81.9163 64.2034 81.4314 63.6856C80.9548 63.1596 80.3383 62.8966 79.5822 62.8966C78.9905 62.8966 78.4727 63.0692 78.0289 63.4144C77.5851 63.7514 77.2399 64.2651 76.9933 64.9554C76.7468 65.6376 76.6235 66.4965 76.6235 67.532C76.6235 68.5676 76.7468 69.4305 76.9933 70.1209C77.2399 70.8031 77.5851 71.3167 78.0289 71.6619C78.4727 71.9989 78.9905 72.1674 79.5822 72.1674C80.0836 72.1674 80.5274 72.0523 80.9137 71.8222C81.2999 71.5839 81.6122 71.2387 81.8506 70.7866C82.0972 70.3264 82.2451 69.7675 82.2944 69.11H88.6064C88.5817 70.7784 88.1996 72.2331 87.4599 73.4742C86.7202 74.707 85.6723 75.6603 84.3162 76.3343C82.9683 77.0082 81.3575 77.3452 79.4836 77.3452ZM99.8426 77.3452C97.7879 77.3452 96.0291 76.9384 94.5662 76.1247C93.1032 75.3028 91.9814 74.1604 91.2006 72.6975C90.4198 71.2263 90.0294 69.5209 90.0294 67.5813C90.0294 65.6417 90.4198 63.9404 91.2006 62.4775C91.9814 61.0063 93.1032 59.8639 94.5662 59.0503C96.0291 58.2284 97.7879 57.8175 99.8426 57.8175C101.7 57.8175 103.307 58.1544 104.663 58.8284C106.027 59.4941 107.083 60.4392 107.831 61.6638C108.579 62.8802 108.957 64.3103 108.965 65.954H102.653C102.563 64.9596 102.275 64.2034 101.79 63.6856C101.314 63.1596 100.697 62.8966 99.9412 62.8966C99.3495 62.8966 98.8317 63.0692 98.3879 63.4144C97.9441 63.7514 97.5989 64.2651 97.3523 64.9554C97.1058 65.6376 96.9825 66.4965 96.9825 67.532C96.9825 68.5676 97.1058 69.4305 97.3523 70.1209C97.5989 70.8031 97.9441 71.3167 98.3879 71.6619C98.8317 71.9989 99.3495 72.1674 99.9412 72.1674C100.443 72.1674 100.886 72.0523 101.273 71.8222C101.659 71.5839 101.971 71.2387 102.21 70.7866C102.456 70.3264 102.604 69.7675 102.653 69.11H108.965C108.941 70.7784 108.559 72.2331 107.819 73.4742C107.079 74.707 106.031 75.6603 104.675 76.3343C103.327 77.0082 101.716 77.3452 99.8426 77.3452Z" fill="white" style="fill:white;fill:white;fill-opacity:1;"/>
</svg>
